<svg width="30" height="30" viewBox="0 0 30 30" fill="none" xmlns="http://www.w3.org/2000/svg">
<path d="M30 1.65402V28.3393C30 29.2567 29.2567 29.9933 28.346 29.9933H20.6987V18.3817H24.596L25.1786 13.8549H20.692V10.9621C20.692 9.64955 21.0536 8.75893 22.9353 8.75893H25.3326V4.70759C24.9174 4.65402 23.4978 4.52679 21.8371 4.52679C18.3817 4.52679 16.0112 6.63616 16.0112 10.5134V13.8549H12.1004V18.3817H16.0112V30H1.65402C0.743304 30 0 29.2567 0 28.346V1.65402C0 0.743304 0.743304 0 1.65402 0H28.3393C29.2567 0 30 0.743304 30 1.65402Z" fill="black"/>
</svg>
