<svg width="206" height="38" viewBox="0 0 206 38" fill="none" xmlns="http://www.w3.org/2000/svg">
<path d="M40.0859 3.69531V21.5811C40.0739 24.0622 39.291 26.0916 37.7373 27.6694C36.1956 29.2472 34.0999 30.1325 31.4502 30.3252L30.5288 30.3613C27.6502 30.3613 25.3558 29.5845 23.6455 28.0308C21.9352 26.4771 21.068 24.3392 21.0439 21.6172V3.69531H24.4766V21.5088C24.4766 23.4118 25.0005 24.8932 26.0483 25.9531C27.0962 27.001 28.5897 27.5249 30.5288 27.5249C32.492 27.5249 33.9915 27.001 35.0273 25.9531C36.0752 24.9053 36.5991 23.4299 36.5991 21.5269V3.69531H40.0859ZM44.2412 20.0635C44.2412 17.0163 44.9458 14.5954 46.355 12.8008C47.7642 10.9941 49.631 10.0908 51.9556 10.0908C54.3403 10.0908 56.2012 10.9339 57.5381 12.6201L57.7007 10.4521H60.7539V29.5303C60.7539 32.0596 60.0011 34.0529 58.4956 35.5103C57.0021 36.9676 54.9907 37.6963 52.4614 37.6963C51.0522 37.6963 49.6732 37.3952 48.3242 36.793C46.9753 36.1908 45.9455 35.3657 45.2349 34.3179L46.9692 32.3125C48.4025 34.083 50.1549 34.9683 52.2266 34.9683C53.8525 34.9683 55.1172 34.5106 56.0205 33.5952C56.9359 32.6799 57.3936 31.3911 57.3936 29.729V28.0488C56.0566 29.5905 54.2319 30.3613 51.9194 30.3613C49.631 30.3613 47.7762 29.4399 46.355 27.5972C44.9458 25.7544 44.2412 23.2432 44.2412 20.0635ZM47.6016 20.4429C47.6016 22.647 48.0532 24.3813 48.9565 25.646C49.8599 26.8986 51.1245 27.5249 52.7505 27.5249C54.8582 27.5249 56.4059 26.5674 57.3936 24.6523V15.7275C56.3698 13.8607 54.8341 12.9272 52.7866 12.9272C51.1606 12.9272 49.89 13.5596 48.9746 14.8242C48.0592 16.0889 47.6016 17.9618 47.6016 20.4429ZM68.9561 10.4521L69.0464 12.6201C70.4797 10.9339 72.4128 10.0908 74.8457 10.0908C77.5798 10.0908 79.4406 11.1387 80.4282 13.2344C81.0786 12.2949 81.9217 11.5361 82.9575 10.958C84.0054 10.3799 85.2399 10.0908 86.6611 10.0908C90.9489 10.0908 93.1289 12.3612 93.2012 16.9019V30H89.8589V17.1006C89.8589 15.7035 89.5397 14.6616 88.9014 13.9751C88.263 13.2765 87.1911 12.9272 85.6855 12.9272C84.445 12.9272 83.4152 13.3006 82.5962 14.0474C81.7772 14.7821 81.3014 15.7757 81.1689 17.0283V30H77.8086V17.1909C77.8086 14.3485 76.4175 12.9272 73.6353 12.9272C71.4432 12.9272 69.9437 13.8607 69.1367 15.7275V30H65.7944V10.4521H68.9561ZM97.3745 20.0454C97.3745 18.1304 97.7479 16.408 98.4946 14.8784C99.2534 13.3488 100.301 12.1685 101.638 11.3374C102.987 10.5063 104.523 10.0908 106.245 10.0908C108.907 10.0908 111.057 11.0122 112.695 12.855C114.345 14.6978 115.17 17.1488 115.17 20.208V20.4429C115.17 22.3459 114.803 24.0562 114.068 25.5737C113.345 27.0793 112.303 28.2536 110.942 29.0967C109.593 29.9398 108.04 30.3613 106.281 30.3613C103.632 30.3613 101.482 29.4399 99.8315 27.5972C98.1935 25.7544 97.3745 23.3154 97.3745 20.2803V20.0454ZM100.735 20.4429C100.735 22.6108 101.235 24.3512 102.234 25.6641C103.246 26.9769 104.595 27.6333 106.281 27.6333C107.979 27.6333 109.328 26.9709 110.328 25.646C111.328 24.3091 111.828 22.4422 111.828 20.0454C111.828 17.9015 111.316 16.1672 110.292 14.8423C109.28 13.5054 107.931 12.8369 106.245 12.8369C104.595 12.8369 103.264 13.4933 102.252 14.8062C101.241 16.119 100.735 17.9979 100.735 20.4429ZM122.523 10.4521L122.631 12.9092C124.125 11.0303 126.076 10.0908 128.485 10.0908C132.616 10.0908 134.7 12.4214 134.736 17.0825V30H131.394V17.0645C131.382 15.6553 131.056 14.6134 130.418 13.939C129.792 13.2645 128.81 12.9272 127.473 12.9272C126.389 12.9272 125.438 13.2163 124.619 13.7944C123.8 14.3726 123.161 15.1313 122.704 16.0708V30H119.361V10.4521H122.523ZM145.232 20.9487L143.137 23.1348V30H139.794V2.25H143.137V19.0337L144.925 16.8838L151.014 10.4521H155.079L147.473 18.6182L155.964 30H152.043L145.232 20.9487Z" fill="#1A1A1A" fill-opacity="0.71"/>
<g clip-path="url(#clip0_13401_2)">
<path d="M198.993 6.37323H197.662C197.481 6.37323 197.33 6.52284 197.33 6.70236V15.4394V15.4693C197.33 17.2945 195.848 18.7606 194.004 18.7606C192.159 18.7606 190.678 17.2945 190.678 15.4693V15.4394V6.70236C190.678 6.52284 190.527 6.37323 190.345 6.37323H189.015C188.833 6.37323 188.682 6.52284 188.682 6.70236V15.4693C188.682 18.3417 191.01 20.6756 193.913 20.7354H194.034H194.155C197.027 20.6756 199.386 18.3417 199.386 15.4693V6.70236C199.356 6.52284 199.204 6.37323 198.993 6.37323Z" fill="black"/>
<path d="M205.463 0.119686H182.574C182.333 0.119686 182.151 0.299214 182.151 0.538584V18.1323V20.1969V37.5811C182.151 37.8205 182.333 38 182.574 38H205.463C205.705 38 205.887 37.8205 205.887 37.5811V20.1969V18.1323V0.538584C205.887 0.299214 205.705 0.119686 205.463 0.119686ZM184.086 2.45354V2.2441C184.086 2.12441 184.177 2.00473 184.328 2.00473H184.54H203.558H203.77C203.891 2.00473 204.012 2.09449 204.012 2.2441V2.45354V19.389L194.367 28.9339L194.215 29.0835C194.125 29.1732 193.974 29.1732 193.883 29.0835L193.732 28.9339L184.086 19.389V2.45354ZM203.951 35.6661V35.8756C203.951 35.9953 203.861 36.115 203.71 36.115H203.498H184.51H184.298C184.177 36.115 184.056 36.0252 184.056 35.8756V35.6661V22.0819L193.701 31.6268C193.853 31.7764 194.125 31.7764 194.306 31.6268L203.951 22.0819V35.6661Z" fill="black"/>
</g>
<defs>
<clipPath id="clip0_13401_2">
<rect width="24" height="38" fill="white" transform="translate(182)"/>
</clipPath>
</defs>
</svg>
