<svg width="30" height="28" viewBox="0 0 30 28" fill="none" xmlns="http://www.w3.org/2000/svg">
<path d="M26.9163 6.9781C26.9354 7.28434 26.9354 7.59064 26.9354 7.89687C26.9354 17.2375 20.7488 28 9.44166 28C5.95813 28 2.7221 26.8406 0 24.8282C0.494943 24.8937 0.970785 24.9156 1.48477 24.9156C4.3591 24.9156 7.00509 23.8 9.11804 21.8969C6.41499 21.8313 4.14974 19.7969 3.36927 16.9969C3.75001 17.0625 4.1307 17.1062 4.53049 17.1062C5.0825 17.1062 5.63457 17.0187 6.1485 16.8656C3.33124 16.2093 1.21823 13.3656 1.21823 9.93124V9.84377C2.03673 10.3688 2.98859 10.6969 3.9974 10.7406C2.3413 9.47182 1.25631 7.30622 1.25631 4.8562C1.25631 3.54373 1.56083 2.3406 2.09386 1.29059C5.12053 5.57809 9.67006 8.37804 14.7715 8.68435C14.6764 8.15934 14.6193 7.61252 14.6193 7.06563C14.6193 3.17184 17.3604 0 20.7678 0C22.5381 0 24.137 0.853123 25.2602 2.23125C26.6497 1.92501 27.9822 1.33436 29.1625 0.525004C28.7055 2.16567 27.7348 3.54379 26.4594 4.41873C27.6967 4.26568 28.896 3.87184 30 3.32502C29.1626 4.72497 28.1156 5.97179 26.9163 6.9781V6.9781Z" fill="black"/>
</svg>
